<svg width="421.64895019531247px" height="119.6px" xmlns="http://www.w3.org/2000/svg" viewBox="39.17552490234377 15.200000000000003 421.64895019531247 119.6" style="background:#596886" preserveAspectRatio="xMidYMid"><defs><filter id="editing-hover" x="-100%" y="-100%" width="300%" height="300%"><feFlood flood-color="#052b4a" result="flood"></feFlood><feComposite operator="in" in2="SourceAlpha" in="flood" result="shadow"></feComposite><feOffset dx="-4" dy="-4" in="SourceGraphic" result="offset-1"></feOffset><feOffset dx="4" dy="4" in="shadow" result="offset-2"></feOffset><feMerge><feMergeNode in="offset-2"></feMergeNode><feMergeNode in="offset-1"></feMergeNode></feMerge></filter></defs><g filter="url(#editing-hover)"><g transform="translate(103.06044441461563, 105.37002944946289)"><path d="M-0.84-1.97L10.13-44.94L10.13-44.94Q10.50-46.34 12.03-46.34L12.03-46.34L13.91-46.34L13.91-46.34Q14.66-46.34 15.02-45.77L15.02-45.77L15.02-45.77Q15.38-45.19 15.16-44.34L15.16-44.34L4.22-1.41L4.22-1.41Q3.84 0 2.31 0L2.31 0L0.44 0L0.44 0Q-0.31 0-0.67-0.58L-0.67-0.58L-0.67-0.58Q-1.03-1.16-0.84-1.97L-0.84-1.97ZM13.88-1.66L21.63-30.84L21.63-30.84Q21.94-32.06 22.20-32.28L22.20-32.28L22.20-32.28Q22.47-32.50 22.91-32.50L22.91-32.50L25.53-32.50L25.53-32.50Q27.13-32.50 26.56-30.66L26.56-30.66L21.75-14.53L28.41-25.53L28.41-25.53Q30.34-28.75 32.70-30.63L32.70-30.63L32.70-30.63Q35.06-32.50 36.59-32.50L36.59-32.50L37.94-32.50L37.94-32.50Q38.97-32.50 39.55-32.16L39.55-32.16L39.55-32.16Q40.13-31.81 40.48-30.59L40.48-30.59L40.48-30.59Q40.84-29.38 40.13-27L40.13-27L36.88-15.03L43-25.59L43-25.59Q45-29.06 47.30-30.78L47.30-30.78L47.30-30.78Q49.59-32.50 51.19-32.50L51.19-32.50L52.53-32.50L52.53-32.50Q53.56-32.50 54.14-32.16L54.14-32.16L54.14-32.16Q54.72-31.81 55.06-30.59L55.06-30.59L55.06-30.59Q55.41-29.38 54.72-27L54.72-27L47.56-0.91L47.56-0.91Q47.34 0 46.53 0L46.53 0L43.19 0L43.19 0Q42.25 0 42.69-1.53L42.69-1.53L49.41-23.50L49.41-23.50Q49.91-25.22 49.91-25.77L49.91-25.77L49.91-25.77Q49.91-26.31 49.47-26.31L49.47-26.31L49.47-26.31Q49.03-26.31 48.42-25.73L48.42-25.73L48.42-25.73Q47.81-25.16 46.78-23.63L46.78-23.63L46.78-23.63Q45.56-21.88 44.13-19.55L44.13-19.55L44.13-19.55Q42.69-17.22 40.34-13.56L40.34-13.56L40.34-13.56Q38-9.91 37.25-8.63L37.25-8.63L37.25-8.63Q34.38-3.97 32.97-0.91L32.97-0.91L32.97-0.91Q32.56 0 31.88 0L31.88 0L28.59 0L28.59 0Q27.66 0 28.09-1.53L28.09-1.53L34.81-23.50L34.81-23.50Q35.31-25.22 35.31-25.77L35.31-25.77L35.31-25.77Q35.31-26.31 34.88-26.31L34.88-26.31L34.88-26.31Q34.44-26.31 33.83-25.73L33.83-25.73L33.83-25.73Q33.22-25.16 32.19-23.63L32.19-23.63L32.19-23.63Q30.97-21.88 29.25-19.09L29.25-19.09L29.25-19.09Q27.53-16.31 24.91-12.22L24.91-12.22L24.91-12.22Q19.97-4.69 17.91-0.91L17.91-0.91L17.91-0.91Q17.41 0 16.38 0L16.38 0L14.59 0L14.59 0Q14.22 0 13.95-0.52L13.95-0.52L13.95-0.52Q13.69-1.03 13.88-1.66L13.88-1.66ZM74.50-31.22L74.50-31.22L74.50-31.22Q74.75-32.72 75.97-32.72L75.97-32.72L77.44-32.78L77.44-32.78Q79.78-32.72 79.16-30.47L79.16-30.47L71.47-4.88L71.47-4.88Q73.47-6.34 75.44-9.09L75.44-9.09L75.44-9.09Q76.16-10.13 77.03-9.53L77.03-9.53L78.59-8.50L78.59-8.50Q79.59-7.81 78.91-6.91L78.91-6.91L78.91-6.91Q76.28-3.84 74.08-2.14L74.08-2.14L74.08-2.14Q71.88-0.44 68.84 0.25L68.84 0.25L68.84 0.25Q67.97 0.38 67.69-0.44L67.69-0.44L66.50-3.97L66.50-3.97Q64.69-1.59 63.41-0.70L63.41-0.70L63.41-0.70Q62.13 0.19 61.44 0.19L61.44 0.19L61.31 0.19L61.31 0.19Q60.78 0.19 59.73-0.55L59.73-0.55L59.73-0.55Q58.69-1.28 57.66-2.47L57.66-2.47L57.66-2.47Q56.63-3.66 56.17-5.06L56.17-5.06L56.17-5.06Q55.72-6.47 56.23-10.17L56.23-10.17L56.23-10.17Q56.75-13.88 59.16-20.53L59.16-20.53L59.16-20.53Q61.56-27.19 64.09-29.81L64.09-29.81L64.09-29.81Q66.63-32.44 70.44-32.38L70.44-32.38L70.44-32.38Q72.56-32.38 74.50-31.22ZM73.53-27.66L73.53-27.66L73.53-27.66Q70.13-29.56 67.98-27.73L67.98-27.73L67.98-27.73Q65.84-25.91 63.80-20.28L63.80-20.28L63.80-20.28Q61.75-14.66 61.14-11.45L61.14-11.45L61.14-11.45Q60.53-8.25 60.63-7.09L60.63-7.09L60.63-7.09Q60.72-5.94 61.75-5.41L61.75-5.41L61.75-5.41Q62.78-4.88 65.17-7.50L65.17-7.50L65.17-7.50Q67.56-10.13 69.36-14.69L69.36-14.69L69.36-14.69Q71.16-19.25 73.53-27.66ZM93.69-32.38L93.69-32.38L93.69-32.38Q95.81-32.38 97.78-31.16L97.78-31.16L97.78-31.16Q98.16-32.44 99.13-32.44L99.13-32.44L101.31-32.50L101.31-32.50Q102.91-32.56 102.59-30.84L102.59-30.84L102.59-30.84Q101.13-24.97 93.19 3.19L93.19 3.19L93.19 3.19Q91.53 9.16 88.13 11L88.13 11L88.13 11Q86.34 12.09 85.34 12.16L85.34 12.16L85.34 12.16Q84.34 12.22 82.31 11.06L82.31 11.06L75.78 7.38L75.78 7.38Q74.25 6.59 75.25 5.06L75.25 5.06L76.22 3.72L76.22 3.72Q77.25 2.56 78.34 3.19L78.34 3.19L85.44 7.56L85.44 7.56Q86.91 8.19 87.56 5.81L87.56 5.81L90.63-5.38L90.63-5.38Q89.22-3 87.48-1.41L87.48-1.41L87.48-1.41Q85.75 0.19 84.66 0.19L84.66 0.19L84.53 0.19L84.53 0.19Q84.03 0.19 82.94-0.55L82.94-0.55L82.94-0.55Q81.84-1.28 80.83-2.53L80.83-2.53L80.83-2.53Q79.81-3.78 79.39-5.19L79.39-5.19L79.39-5.19Q78.97-6.59 79.55-10.44L79.55-10.44L79.55-10.44Q80.13-14.28 82.45-20.77L82.45-20.77L82.45-20.77Q84.78-27.25 87.31-29.81L87.31-29.81L87.31-29.81Q89.84-32.38 93.69-32.38ZM96.56-27.06L96.75-27.66L96.75-27.66Q93.56-29.44 91.42-27.91L91.42-27.91L91.42-27.91Q89.28-26.38 87.14-20.58L87.14-20.58L87.14-20.58Q85-14.78 84.39-11.52L84.39-11.52L84.39-11.52Q83.78-8.25 83.88-7.09L83.88-7.09L83.88-7.09Q83.97-5.94 85.02-5.41L85.02-5.41L85.02-5.41Q86.06-4.88 88.53-7.69L88.53-7.69L88.53-7.69Q91-10.50 92.73-14.98L92.73-14.98L92.73-14.98Q94.47-19.47 96.56-27.06L96.56-27.06ZM107-8.84L107-8.84L107-8.84Q106.13-4.16 108.75-3.66L108.75-3.66L108.75-3.66Q111.09-4.53 114.56-8.44L114.56-8.44L114.56-8.44Q115.16-8.97 115.84-8.56L115.84-8.56L117.06-7.81L117.06-7.81Q117.91-7.16 117.63-6.41L117.63-6.41L117.63-6.41Q116.41-4.09 113.13-1.50L113.13-1.50L113.13-1.50Q109.84 1.09 107.84 0.72L107.84 0.72L107.84 0.72Q103.31-0.44 102.53-4.03L102.53-4.03L102.53-4.03Q101.63-8.84 104.13-17.25L104.13-17.25L104.13-17.25Q106.63-25.66 111.09-29.94L111.09-29.94L111.09-29.94Q112.66-31.38 114.98-32.08L114.98-32.08L114.98-32.08Q117.31-32.78 119.91-31.69L119.91-31.69L119.91-31.69Q122.50-30.59 122.47-25.44L122.47-25.44L122.47-25.44Q122.44-20.28 117.95-15.70L117.95-15.70L117.95-15.70Q113.47-11.13 107-8.84ZM107.78-13L107.78-13L107.78-13Q110.78-14.28 112.92-16L112.92-16L112.92-16Q115.06-17.72 116.45-20.19L116.45-20.19L116.45-20.19Q117.84-22.66 117.84-25.25L117.84-25.25L117.84-25.25Q117.84-27.84 116.34-27.84L116.34-27.84L116.34-27.84Q113.41-27.84 111.20-23.05L111.20-23.05L111.20-23.05Q109-18.25 107.78-13ZM135.16-32.91L135.16-32.91L136.13-32.91L136.13-32.91Q138.31-32.91 140.16-31.23L140.16-31.23L140.16-31.23Q142-29.56 143.16-27.13L143.16-27.13L143.16-27.13Q143.81-25.78 142.72-25.09L142.72-25.09L140.78-24L140.78-24Q139.44-23.03 138.88-24.31L138.88-24.31L138.88-24.31Q138.81-24.44 138.36-25.50L138.36-25.50L138.36-25.50Q137.91-26.56 137.63-27.02L137.63-27.02L137.63-27.02Q137.34-27.47 136.64-28.03L136.64-28.03L136.64-28.03Q135.94-28.59 135.03-28.75L135.03-28.75L135.03-28.75Q133.44-28.41 132.03-26.63L132.03-26.63L132.03-26.63Q130.63-24.84 130.63-21.56L130.63-21.56L130.63-21.56Q130.63-20.16 131.30-19.61L131.30-19.61L131.30-19.61Q131.97-19.06 133.69-18.69L133.69-18.69L135.47-18.31L135.47-18.31Q139.38-17.47 139.38-11.84L139.38-11.84L139.38-11.84Q139.38-8.50 136.88-4.16L136.88-4.16L136.88-4.16Q135.69-2.13 133.63-0.70L133.63-0.70L133.63-0.70Q131.56 0.72 129.16 0.72L129.16 0.72L128.69 0.72L128.69 0.72Q126.25 0.72 124.34-0.98L124.34-0.98L124.34-0.98Q122.44-2.69 121.66-4.45L121.66-4.45L121.66-4.45Q120.88-6.22 121.66-7.09L121.66-7.09L123.06-8.25L123.06-8.25Q123.72-8.91 124.48-8.84L124.48-8.84L124.48-8.84Q125.25-8.78 125.53-7.72L125.53-7.72L125.53-7.72Q125.81-6.66 127.09-5.16L127.09-5.16L127.09-5.16Q128.38-3.66 129.47-3.59L129.47-3.59L129.47-3.59Q131.38-3.91 132.78-5.86L132.78-5.86L132.78-5.86Q134.19-7.81 134.19-10.34L134.19-10.34L134.19-10.34Q134.19-12.88 133.72-13.58L133.72-13.58L133.72-13.58Q133.25-14.28 131.56-14.66L131.56-14.66L130.16-14.97L130.16-14.97Q127.69-15.56 126.66-17.03L126.66-17.03L126.66-17.03Q125.63-18.50 125.63-21L125.63-21L125.63-21Q125.63-25.16 128.59-29.03L128.59-29.03L128.59-29.03Q131.56-32.91 135.16-32.91ZM168.38-21.75L168.38-21.75L180.03-21.75L180.03-21.75Q181.03-21.75 180.59-20.34L180.59-20.34L180.59-20.34Q176.94-8.72 173.36-4.36L173.36-4.36L173.36-4.36Q169.78 0 165.42 0.36L165.42 0.36L165.42 0.36Q161.06 0.72 158.34-1.94L158.34-1.94L158.34-1.94Q155.63-4.59 155.38-11.80L155.38-11.80L155.38-11.80Q155.13-19 157.39-27.27L157.39-27.27L157.39-27.27Q159.66-35.53 164.02-40.67L164.02-40.67L164.02-40.67Q168.38-45.81 172.38-46.55L172.38-46.55L172.38-46.55Q176.38-47.28 178.58-45.75L178.58-45.75L178.58-45.75Q180.78-44.22 181.97-40.67L181.97-40.67L181.97-40.67Q183.16-37.13 183.16-35.33L183.16-35.33L183.16-35.33Q183.16-33.53 181.88-33.03L181.88-33.03L179.63-32.38L179.63-32.38Q179-32.25 178.58-32.61L178.58-32.61L178.58-32.61Q178.16-32.97 178.06-34.95L178.06-34.95L178.06-34.95Q177.97-36.94 177.08-39.02L177.08-39.02L177.08-39.02Q176.19-41.09 174.72-41.47L174.72-41.47L174.72-41.47Q171.69-42.25 168.14-37.61L168.14-37.61L168.14-37.61Q164.59-32.97 162.67-25.95L162.67-25.95L162.67-25.95Q160.75-18.94 160.59-14.14L160.59-14.14L160.59-14.14Q160.44-9.34 161.42-6.72L161.42-6.72L161.42-6.72Q162.41-4.09 164.66-4.25L164.66-4.25L164.66-4.25Q166.91-4.41 169.23-7.23L169.23-7.23L169.23-7.23Q171.56-10.06 173.81-17.41L173.81-17.41L167.66-17.41L167.66-17.41Q166.44-17.41 166.91-19.19L166.91-19.19L167.41-21L167.41-21Q167.66-21.75 168.38-21.75ZM201.06-31.22L201.06-31.22L201.06-31.22Q201.31-32.72 202.53-32.72L202.53-32.72L204-32.78L204-32.78Q206.34-32.72 205.72-30.47L205.72-30.47L198.03-4.88L198.03-4.88Q200.03-6.34 202-9.09L202-9.09L202-9.09Q202.72-10.13 203.59-9.53L203.59-9.53L205.16-8.50L205.16-8.50Q206.16-7.81 205.47-6.91L205.47-6.91L205.47-6.91Q202.84-3.84 200.64-2.14L200.64-2.14L200.64-2.14Q198.44-0.44 195.41 0.25L195.41 0.25L195.41 0.25Q194.53 0.38 194.25-0.44L194.25-0.44L193.06-3.97L193.06-3.97Q191.25-1.59 189.97-0.70L189.97-0.70L189.97-0.70Q188.69 0.19 188 0.19L188 0.19L187.88 0.19L187.88 0.19Q187.34 0.19 186.30-0.55L186.30-0.55L186.30-0.55Q185.25-1.28 184.22-2.47L184.22-2.47L184.22-2.47Q183.19-3.66 182.73-5.06L182.73-5.06L182.73-5.06Q182.28-6.47 182.80-10.17L182.80-10.17L182.80-10.17Q183.31-13.88 185.72-20.53L185.72-20.53L185.72-20.53Q188.13-27.19 190.66-29.81L190.66-29.81L190.66-29.81Q193.19-32.44 197-32.38L197-32.38L197-32.38Q199.13-32.38 201.06-31.22ZM200.09-27.66L200.09-27.66L200.09-27.66Q196.69-29.56 194.55-27.73L194.55-27.73L194.55-27.73Q192.41-25.91 190.36-20.28L190.36-20.28L190.36-20.28Q188.31-14.66 187.70-11.45L187.70-11.45L187.70-11.45Q187.09-8.25 187.19-7.09L187.19-7.09L187.19-7.09Q187.28-5.94 188.31-5.41L188.31-5.41L188.31-5.41Q189.34-4.88 191.73-7.50L191.73-7.50L191.73-7.50Q194.13-10.13 195.92-14.69L195.92-14.69L195.92-14.69Q197.72-19.25 200.09-27.66ZM222.06-47.09L222.06-47.09L210.41-1.41L210.41-1.41Q210.03 0 208.47 0L208.47 0L207.41 0L207.41 0Q205.03 0 205.53-2.06L205.53-2.06L217.25-47.16L217.25-47.16Q217.63-48.56 219.16-48.56L219.16-48.56L220.63-48.56L220.63-48.56Q222.44-48.56 222.06-47.09ZM233.88-47.09L233.88-47.09L222.22-1.41L222.22-1.41Q221.84 0 220.28 0L220.28 0L219.22 0L219.22 0Q216.84 0 217.34-2.06L217.34-2.06L229.06-47.16L229.06-47.16Q229.44-48.56 230.97-48.56L230.97-48.56L232.44-48.56L232.44-48.56Q234.25-48.56 233.88-47.09ZM234.09-8.84L234.09-8.84L234.09-8.84Q233.22-4.16 235.84-3.66L235.84-3.66L235.84-3.66Q238.19-4.53 241.66-8.44L241.66-8.44L241.66-8.44Q242.25-8.97 242.94-8.56L242.94-8.56L244.16-7.81L244.16-7.81Q245-7.16 244.72-6.41L244.72-6.41L244.72-6.41Q243.50-4.09 240.22-1.50L240.22-1.50L240.22-1.50Q236.94 1.09 234.94 0.72L234.94 0.72L234.94 0.72Q230.41-0.44 229.63-4.03L229.63-4.03L229.63-4.03Q228.72-8.84 231.22-17.25L231.22-17.25L231.22-17.25Q233.72-25.66 238.19-29.94L238.19-29.94L238.19-29.94Q239.75-31.38 242.08-32.08L242.08-32.08L242.08-32.08Q244.41-32.78 247-31.69L247-31.69L247-31.69Q249.59-30.59 249.56-25.44L249.56-25.44L249.56-25.44Q249.53-20.28 245.05-15.70L245.05-15.70L245.05-15.70Q240.56-11.13 234.09-8.84ZM234.88-13L234.88-13L234.88-13Q237.88-14.28 240.02-16L240.02-16L240.02-16Q242.16-17.72 243.55-20.19L243.55-20.19L243.55-20.19Q244.94-22.66 244.94-25.25L244.94-25.25L244.94-25.25Q244.94-27.84 243.44-27.84L243.44-27.84L243.44-27.84Q240.50-27.84 238.30-23.05L238.30-23.05L238.30-23.05Q236.09-18.25 234.88-13ZM262.25-31.16L260.41-23.94L260.41-23.94Q262.44-27.25 264.17-29.44L264.17-29.44L264.17-29.44Q265.91-31.63 266.70-32.17L266.70-32.17L266.70-32.17Q267.50-32.72 269.50-32.72L269.50-32.72L270.13-32.72L270.13-32.72Q272-32.72 271.41-31.28L271.41-31.28L271.41-31.28Q271.09-30.53 269.84-29.41L269.84-29.41L269.84-29.41Q268.59-28.28 266.45-25.56L266.45-25.56L266.45-25.56Q264.31-22.84 264.31-22.03L264.31-22.03L264.31-22.03Q264.31-20.34 265.91-18.88L265.91-18.88L265.91-18.88Q266.28-18.56 266.13-18.20L266.13-18.20L266.13-18.20Q265.97-17.84 265.47-17.72L265.47-17.72L263.03-17.28L263.03-17.28Q262-17.09 261.45-17.50L261.45-17.50L261.45-17.50Q260.91-17.91 259.56-20.41L259.56-20.41L254.66-1.41L254.66-1.41Q254.25 0 252.72 0L252.72 0L250.88 0L250.88 0Q249.06 0 249.47-1.47L249.47-1.47L257.28-31.22L257.28-31.22Q257.59-32.50 259.06-32.50L259.06-32.50L261.03-32.50L261.03-32.50Q261.88-32.50 262.16-32.22L262.16-32.22L262.16-32.22Q262.44-31.94 262.25-31.16L262.25-31.16ZM291.03-32.50L291.03-32.50L293.47-32.50L293.47-32.50Q293.88-32.50 294.13-32L294.13-32L294.13-32Q294.38-31.50 294.19-30.84L294.19-30.84L284.78 3.19L284.78 3.19Q283.25 9.09 279.72 11L279.72 11L279.72 11Q278.19 11.84 277.66 12.03L277.66 12.03L277.66 12.03Q276.38 12.59 273.91 11.06L273.91 11.06L267.38 7.38L267.38 7.38Q266.53 6.97 266.47 6.23L266.47 6.23L266.47 6.23Q266.41 5.50 266.84 5.06L266.84 5.06L267.81 3.72L267.81 3.72Q268.84 2.63 269.94 3.19L269.94 3.19L277.03 7.56L277.03 7.56Q278.44 8.31 279.16 5.81L279.16 5.81L285.34-16.13L283.88-13.31L280.09-6.97L280.09-6.97Q278.06-3.47 275.95-1.73L275.95-1.73L275.95-1.73Q273.84 0 272.22 0L272.22 0L271.84 0L271.84 0Q270.50 0 269.59-0.97L269.59-0.97L269.59-0.97Q267.38-3.41 268.59-7.81L268.59-7.81L275.13-31.63L275.13-31.63Q275.38-32.50 276.13-32.50L276.13-32.50L279.47-32.50L279.47-32.50Q280.44-32.50 279.97-30.97L279.97-30.97L273.50-8.78L273.50-8.78Q273-6.78 273.38-6.28L273.38-6.28L273.38-6.28Q274.09-5.19 276.63-8.97L276.63-8.97L276.63-8.97Q279.16-12.75 289.50-31.63L289.50-31.63L289.50-31.63Q290.03-32.50 291.03-32.50Z" fill="#ffd5af"></path></g></g><style>text {
  font-size: 64px;
  font-family: Arial Black;
  dominant-baseline: central;
  text-anchor: middle;
}</style></svg>