<svg width="454.5px" height="127.1px" xmlns="http://www.w3.org/2000/svg" viewBox="22.7581787109375 11.4742431640625 454.483642578125 127.051513671875" style="background: #596886" preserveAspectRatio="xMidYMid"><defs><filter id="editing-hover" x="-100%" y="-100%" width="300%" height="300%"><feFlood flood-color="#5778a3" result="flood"></feFlood><feComposite operator="in" in2="SourceAlpha" in="flood" result="shadow"></feComposite><feOffset dx="-1.3" dy="-2.6" in="SourceGraphic" result="offset-1"></feOffset><feOffset dx="1.3" dy="2.6" in="shadow" result="offset-2"></feOffset><feMerge><feMergeNode in="offset-2"></feMergeNode><feMergeNode in="offset-1"></feMergeNode></feMerge></filter></defs><g filter="url(#editing-hover)"><g transform="matrix(1.2,0,0,1.7,79.4,218.9)"><path d="M -18.4 -100.5 L -18.4 -100.5 L -18.4 -100.5 Q -18.4 -80.6 -17.5 -74.5 L -17.5 -74.5 L -17.5 -74.5 Q -17.5 -72.9 -20.4 -71.9 L -20.4 -71.9 L -20.4 -71.9 Q -23.4 -71 -25.3 -71 L -25.3 -71 L -25.3 -71 Q -27.2 -71 -27.2 -71.5 L -27.2 -71.5 L -27.2 -71.5 Q -27.2 -71.9 -27 -72.5 L -27 -72.5 L -27 -72.5 Q -25.8 -75.2 -25.8 -94.1 L -25.8 -94.1 L -25.8 -94.1 Q -25.8 -112 -27.3 -114 L -27.3 -114 L -27.6 -114.4 L -27.6 -114.4 Q -28 -114.7 -28 -115.2 L -28 -115.2 L -28 -115.2 Q -28 -115.7 -27.3 -116 L -27.3 -116 L -27.3 -116 Q -26.3 -116.6 -23.9 -117.2 L -23.9 -117.2 L -23.9 -117.2 Q -21.4 -117.7 -19.4 -117.7 L -19.4 -117.7 L -19.4 -117.7 Q -17.4 -117.7 -17.4 -116.8 L -17.4 -116.8 L -17.4 -116.6 L -17.4 -116.6 Q -18.2 -110 -18.4 -100.5 Z M 1.5 -71.7 L 1.5 -71.7 L 1.5 -71.7 Q 2.4 -76.2 2.4 -84.3 L 2.4 -84.3 L 2.4 -84.3 Q 2.4 -92.4 2.4 -93.9 L 2.4 -93.9 L 2.4 -93.9 Q 2.3 -95.3 1.5 -96.2 L 1.5 -96.2 L 1.5 -96.2 Q 0.6 -97.1 0 -97.3 L 0 -97.3 L 0 -97.3 Q -0.6 -97.4 -1.7 -97.4 L -1.7 -97.4 L -1.7 -97.4 Q -2.8 -97.4 -3.8 -96.4 L -3.8 -96.4 L -3.8 -96.4 Q -4.8 -95.4 -5 -94.4 L -5 -94.4 L -5.3 -93.4 L -5.3 -93.4 Q -5.5 -91.4 -5.5 -84.8 L -5.5 -84.8 L -5.5 -84.8 Q -5.5 -78.2 -5.2 -76.6 L -5.2 -76.6 L -5.2 -76.6 Q -4.9 -74.9 -4.9 -74.3 L -4.9 -74.3 L -4.9 -74.3 Q -4.9 -73.7 -5.4 -73.1 L -5.4 -73.1 L -5.4 -73.1 Q -7.6 -70.8 -11.5 -70.8 L -11.5 -70.8 L -11.5 -70.8 Q -12.9 -70.8 -12.9 -71.7 L -12.9 -71.7 L -12.9 -71.7 Q -11.7 -79.3 -11.7 -91.2 L -11.7 -91.2 L -11.7 -91.2 Q -11.7 -95.7 -11.9 -97.2 L -11.9 -97.2 L -12.1 -99.2 L -12.1 -99.2 Q -12.2 -99.9 -12.4 -100.8 L -12.4 -100.8 L -12.4 -100.8 Q -12.4 -101.5 -10.4 -101.5 L -10.4 -101.5 L -10.4 -101.5 Q -7.4 -101.5 -6.5 -99.4 L -6.5 -99.4 L -6.5 -99.4 Q -6.4 -99.1 -6.2 -99.1 L -6.2 -99.1 L -6.2 -99.1 Q -6 -99.1 -5.3 -99.6 L -5.3 -99.6 L -5.3 -99.6 Q -3.2 -101.3 0.4 -101.3 L 0.4 -101.3 L 0.4 -101.3 Q 2.4 -101.3 4.4 -100.5 L 4.4 -100.5 L 4.4 -100.5 Q 6.4 -99.8 7.2 -98.5 L 7.2 -98.5 L 7.2 -98.5 Q 7.2 -98.3 7.3 -98.3 L 7.3 -98.3 L 7.3 -98.3 Q 7.5 -98.3 7.7 -98.6 L 7.7 -98.6 L 7.7 -98.6 Q 10.4 -101.3 14.7 -101.3 L 14.7 -101.3 L 14.7 -101.3 Q 20.4 -101.3 22.5 -97.2 L 22.5 -97.2 L 22.5 -97.2 Q 23.3 -95.6 23.3 -93.2 L 23.3 -93.2 L 23.3 -93.2 Q 23.3 -90.7 22.9 -86.2 L 22.9 -86.2 L 22.9 -86.2 Q 22.5 -81.8 22.5 -79.4 L 22.5 -79.4 L 22.5 -79.4 Q 22.5 -77 23 -75.1 L 23 -75.1 L 23 -75.1 Q 23.5 -73.2 24 -72.4 L 24 -72.4 L 24 -72.4 Q 24.4 -71.5 24.4 -71.4 L 24.4 -71.4 L 24.4 -71.4 Q 24.4 -70.6 22.6 -70.6 L 22.6 -70.6 L 22.6 -70.6 Q 18.2 -70.6 16.5 -72.4 L 16.5 -72.4 L 16.5 -72.4 Q 14.8 -74.2 14.8 -77.1 L 14.8 -77.1 L 14.8 -77.1 Q 14.8 -80 16 -84.9 L 16 -84.9 L 16 -84.9 Q 17.1 -89.9 17.1 -92.4 L 17.1 -92.4 L 17.1 -92.4 Q 17.1 -97.4 13 -97.4 L 13 -97.4 L 13 -97.4 Q 11.3 -97.4 10.3 -96.4 L 10.3 -96.4 L 10.3 -96.4 Q 9.3 -95.4 9.1 -94.4 L 9.1 -94.4 L 8.9 -93.4 L 8.9 -93.4 Q 8.7 -90.4 8.7 -86.2 L 8.7 -86.2 L 8.7 -86.2 Q 8.7 -82.1 8.8 -79.8 L 8.8 -79.8 L 8.8 -79.8 Q 8.9 -77.4 9.1 -76.1 L 9.1 -76.1 L 9.1 -76.1 Q 9.2 -74.8 9.2 -74.5 L 9.2 -74.5 L 9.2 -74.5 Q 9.2 -72.7 7 -71.8 L 7 -71.8 L 7 -71.8 Q 4.7 -70.8 2.6 -70.8 L 2.6 -70.8 L 2.6 -70.8 Q 1.5 -70.8 1.5 -71.7 Z M 47.9 -91.3 L 47.9 -91.3 L 47.8 -83.1 L 47.8 -83.1 Q 47.8 -74.6 49.6 -72.9 L 49.6 -72.9 L 49.6 -72.9 Q 49.9 -72.6 49.9 -72.3 L 49.9 -72.3 L 49.9 -72.3 Q 49.9 -71.3 45.8 -71.3 L 45.8 -71.3 L 45.8 -71.3 Q 41.6 -71.3 41.4 -73.8 L 41.4 -73.8 L 41.4 -73.8 Q 41.3 -74.3 41.3 -76.1 L 41.3 -76.1 L 41.6 -86.4 L 41.6 -86.4 Q 41.6 -86.8 41.1 -86.8 L 41.1 -86.8 L 41.1 -86.8 Q 38 -86.8 35.3 -85.1 L 35.3 -85.1 L 35.3 -85.1 Q 32.6 -83.4 32.6 -80.7 L 32.6 -80.7 L 32.6 -80.7 Q 32.6 -79.3 33.4 -78.3 L 33.4 -78.3 L 33.4 -78.3 Q 34.2 -77.4 35.3 -77.4 L 35.3 -77.4 L 35.3 -77.4 Q 36.4 -77.4 37.1 -77.8 L 37.1 -77.8 L 37.1 -77.8 Q 37.9 -78.2 38 -78.3 L 38 -78.3 L 38 -78.3 Q 39.1 -78.2 39.1 -76 L 39.1 -76 L 39.1 -76 Q 39.1 -73.9 37.1 -72.6 L 37.1 -72.6 L 37.1 -72.6 Q 35.1 -71.3 32.9 -71.3 L 32.9 -71.3 L 32.9 -71.3 Q 30.8 -71.3 29.2 -72 L 29.2 -72 L 29.2 -72 Q 27.6 -72.8 26.9 -73.8 L 26.9 -73.8 L 26.9 -73.8 Q 26.2 -74.7 25.8 -75.9 L 25.8 -75.9 L 25.8 -75.9 Q 25.3 -77.4 25.3 -78.5 L 25.3 -78.5 L 25.3 -78.5 Q 25.3 -83 28.1 -85.7 L 28.1 -85.7 L 28.1 -85.7 Q 31 -88.4 35.4 -89.5 L 35.4 -89.5 L 35.4 -89.5 Q 41.2 -90.7 41.5 -91.6 L 41.5 -91.6 L 41.5 -91.6 Q 41.6 -92.3 41.6 -94 L 41.6 -94 L 41.6 -94 Q 41.6 -97.4 38.2 -97.4 L 38.2 -97.4 L 38.2 -97.4 Q 36.7 -97.4 35.6 -96.5 L 35.6 -96.5 L 35.6 -96.5 Q 34.4 -95.5 34.4 -94.1 L 34.4 -94.1 L 34.8 -92.6 L 34.8 -92.6 Q 34.7 -91.5 32.5 -91.3 L 32.5 -91.3 L 31.8 -91.2 L 31.8 -91.2 Q 29.9 -91.2 28.8 -92.2 L 28.8 -92.2 L 28.8 -92.2 Q 27.6 -93.2 27.6 -94.8 L 27.6 -94.8 L 27.6 -94.8 Q 27.6 -95.8 28.3 -97 L 28.3 -97 L 28.3 -97 Q 29 -98.3 30 -99 L 30 -99 L 30 -99 Q 31 -99.8 33.2 -100.4 L 33.2 -100.4 L 33.2 -100.4 Q 35.3 -101 37.3 -101 L 37.3 -101 L 37.3 -101 Q 39.3 -101 40.4 -100.9 L 40.4 -100.9 L 40.4 -100.9 Q 41.5 -100.8 43.3 -100.3 L 43.3 -100.3 L 43.3 -100.3 Q 45.2 -99.8 46.5 -98.5 L 46.5 -98.5 L 46.5 -98.5 Q 47.7 -97.1 47.8 -95.6 L 47.8 -95.6 L 47.8 -95.6 Q 47.9 -94.1 47.9 -91.3 Z M 56 -97.9 L 56 -97.9 L 56 -97.9 Q 57.5 -99.4 59.8 -100.4 L 59.8 -100.4 L 59.8 -100.4 Q 62.1 -101.4 64.2 -101.4 L 64.2 -101.4 L 64.2 -101.4 Q 66.3 -101.4 68.5 -100.4 L 68.5 -100.4 L 68.5 -100.4 Q 68.7 -100.4 68.8 -100.5 L 68.8 -100.5 L 68.8 -100.5 Q 70.5 -102.2 73.7 -102.2 L 73.7 -102.2 L 73.7 -102.2 Q 74.5 -102.2 74.5 -101.5 L 74.5 -101.5 L 74.5 -101.5 Q 74.5 -101.4 74.4 -100.9 L 74.4 -100.9 L 74.4 -100.9 Q 74.2 -100.4 74 -99.4 L 74 -99.4 L 74 -99.4 Q 73.8 -98.4 73.7 -97 L 73.7 -97 L 73.7 -97 Q 73.3 -93.4 73.2 -88.9 L 73.2 -88.9 L 73.2 -88.9 Q 73.2 -84.5 73.2 -80.1 L 73.2 -80.1 L 73.4 -66.7 L 73.4 -66.7 Q 73.4 -60.2 70.1 -55.9 L 70.1 -55.9 L 70.1 -55.9 Q 68.7 -54.2 66 -52.9 L 66 -52.9 L 66 -52.9 Q 63.3 -51.6 59.6 -51.6 L 59.6 -51.6 L 59.6 -51.6 Q 58.8 -52.1 58.8 -52.6 L 58.8 -52.6 L 58.8 -52.6 Q 58.8 -53.2 59.5 -53.5 L 59.5 -53.5 L 59.5 -53.5 Q 63.5 -55.3 65.3 -62.3 L 65.3 -62.3 L 65.3 -62.3 Q 67 -69.2 67 -83.4 L 67 -83.4 L 66.9 -92.3 L 66.7 -96.7 L 66.7 -96.7 Q 66.7 -97.3 64.9 -97.5 L 64.9 -97.5 L 64.9 -97.5 Q 62.6 -97.5 61 -96 L 61 -96 L 61 -96 Q 59.4 -94.5 58.9 -92.1 L 58.9 -92.1 L 58.9 -92.1 Q 57.8 -88.2 57.8 -85.3 L 57.8 -85.3 L 57.8 -85.3 Q 57.8 -82.5 58.8 -80.3 L 58.8 -80.3 L 58.8 -80.3 Q 59.7 -78.1 62 -78.1 L 62 -78.1 L 62 -78.1 Q 62.6 -78.1 63.2 -78.4 L 63.2 -78.4 L 63.2 -78.4 Q 63.7 -78.6 63.9 -78.6 L 63.9 -78.6 L 63.9 -78.6 Q 64.6 -78.6 64.6 -77.4 L 64.6 -77.4 L 64.6 -77.4 Q 64.6 -76.1 64.4 -75.3 L 64.4 -75.3 L 64.4 -75.3 Q 64.2 -74.5 63.6 -73.5 L 63.6 -73.5 L 63.6 -73.5 Q 62.3 -71.4 58.6 -71.4 L 58.6 -71.4 L 58.6 -71.4 Q 54.9 -71.4 53.3 -74.1 L 53.3 -74.1 L 53.3 -74.1 Q 51.6 -76.8 51.4 -79 L 51.4 -79 L 51.4 -79 Q 51 -82.3 51 -83.3 L 51 -83.3 L 51 -83.3 Q 51 -84.3 51 -84.9 L 51 -84.9 L 51 -84.9 Q 51.1 -85.5 51.3 -87.4 L 51.3 -87.4 L 51.3 -87.4 Q 51.6 -89.2 52.1 -90.8 L 52.1 -90.8 L 52.1 -90.8 Q 52.6 -92.5 53.6 -94.5 L 53.6 -94.5 L 53.6 -94.5 Q 54.6 -96.5 56 -97.9 Z M 83.4 -88.4 L 83.4 -88.4 L 83.5 -86.8 L 83.5 -86.8 Q 83.5 -86.4 84 -86.4 L 84 -86.4 L 84 -86.4 Q 86.1 -86.6 87.6 -87.4 L 87.6 -87.4 L 87.6 -87.4 Q 89.1 -88.3 89.9 -89.4 L 89.9 -89.4 L 89.9 -89.4 Q 91.4 -91.8 91.6 -93.5 L 91.6 -93.5 L 91.6 -94.2 L 91.6 -94.2 Q 91.6 -97.7 88.9 -97.7 L 88.9 -97.7 L 88.9 -97.7 Q 86.8 -97.7 85.6 -95.9 L 85.6 -95.9 L 85.6 -95.9 Q 83.4 -93.1 83.4 -88.4 Z M 97.4 -79.8 L 97.4 -79.8 L 97.4 -79.8 Q 97.4 -77.4 96.4 -75.6 L 96.4 -75.6 L 96.4 -75.6 Q 95.4 -73.8 94.2 -72.9 L 94.2 -72.9 L 94.2 -72.9 Q 92.9 -72 91.2 -71.5 L 91.2 -71.5 L 91.2 -71.5 Q 89.1 -70.9 87.2 -70.9 L 87.2 -70.9 L 87.2 -70.9 Q 81.8 -70.9 79.3 -74.9 L 79.3 -74.9 L 79.3 -74.9 Q 76.7 -79 76.7 -85.2 L 76.7 -85.2 L 76.7 -85.2 Q 76.7 -91.4 79.9 -96.3 L 79.9 -96.3 L 79.9 -96.3 Q 83.1 -101.2 89.4 -101.2 L 89.4 -101.2 L 89.4 -101.2 Q 95.2 -101.2 97.2 -97.1 L 97.2 -97.1 L 97.2 -97.1 Q 98 -95.6 98 -94.2 L 98 -94.2 L 98 -94.2 Q 98 -92.8 97.9 -92 L 97.9 -92 L 97.9 -92 Q 97.8 -91.2 97 -89.6 L 97 -89.6 L 97 -89.6 Q 96.2 -88 95 -86.8 L 95 -86.8 L 95 -86.8 Q 93.7 -85.5 90.9 -84.3 L 90.9 -84.3 L 90.9 -84.3 Q 88.2 -83.2 84.5 -82.8 L 84.5 -82.8 L 84.5 -82.8 Q 84 -82.8 84 -82.3 L 84 -82.3 L 84 -82.3 Q 84 -81.8 84.4 -80.6 L 84.4 -80.6 L 84.4 -80.6 Q 84.8 -79.5 85.3 -78.8 L 85.3 -78.8 L 85.3 -78.8 Q 86.7 -77 89.5 -77 L 89.5 -77 L 89.5 -77 Q 92.2 -77 94.1 -78.8 L 94.1 -78.8 L 94.1 -78.8 Q 95.2 -79.7 95.8 -81.1 L 95.8 -81.1 L 95.8 -81.1 Q 96 -81.6 96.5 -81.6 L 96.5 -81.6 L 96.5 -81.6 Q 96.9 -81.6 97.1 -80.9 L 97.1 -80.9 L 97.1 -80.9 Q 97.4 -80.2 97.4 -79.8 Z M 120.4 -80.9 L 120.4 -80.9 L 120.4 -80.9 Q 120.4 -78.1 119.3 -76.1 L 119.3 -76.1 L 119.3 -76.1 Q 118.3 -74 116.9 -73.1 L 116.9 -73.1 L 116.9 -73.1 Q 115.6 -72.1 113.7 -71.5 L 113.7 -71.5 L 113.7 -71.5 Q 111.3 -70.8 109.3 -70.8 L 109.3 -70.8 L 109.3 -70.8 Q 105.1 -70.8 102.4 -72.4 L 102.4 -72.4 L 102.4 -72.4 Q 99.6 -74 99.6 -77.6 L 99.6 -77.6 L 99.6 -77.6 Q 99.6 -79.7 100.8 -81.1 L 100.8 -81.1 L 100.8 -81.1 Q 102.6 -83 105.1 -83 L 105.1 -83 L 105.1 -83 Q 105.8 -83 105.8 -82.3 L 105.8 -82.3 L 105.8 -82.3 Q 105.8 -82.3 105.6 -81.4 L 105.6 -81.4 L 105.6 -81.4 Q 105.3 -80.4 105.3 -79 L 105.3 -79 L 105.3 -79 Q 105.3 -77.6 106.4 -76.5 L 106.4 -76.5 L 106.4 -76.5 Q 107.5 -75.4 109.1 -75.4 L 109.1 -75.4 L 109.1 -75.4 Q 110.7 -75.4 111.7 -76 L 111.7 -76 L 111.7 -76 Q 112.6 -76.5 113 -77.4 L 113 -77.4 L 113 -77.4 Q 113.6 -78.5 113.6 -79.5 L 113.6 -79.5 L 113.6 -79.5 Q 113.6 -81.4 111.7 -82.7 L 111.7 -82.7 L 111.7 -82.7 Q 109.9 -84.1 107.6 -84.8 L 107.6 -84.8 L 107.6 -84.8 Q 105.4 -85.6 103.5 -87.4 L 103.5 -87.4 L 103.5 -87.4 Q 101.7 -89.2 101.7 -91.9 L 101.7 -91.9 L 101.7 -91.9 Q 101.7 -96.5 104.6 -98.8 L 104.6 -98.8 L 104.6 -98.8 Q 107.5 -101.1 112.5 -101.1 L 112.5 -101.1 L 112.5 -101.1 Q 114.7 -101.1 117.1 -100.5 L 117.1 -100.5 L 117.1 -100.5 Q 119.5 -99.9 119.5 -98.4 L 119.5 -98.4 L 119.5 -98.4 Q 119.5 -97 119 -95.8 L 119 -95.8 L 119 -95.8 Q 118.5 -94.6 117.8 -94.6 L 117.8 -94.6 L 117.8 -94.6 Q 117.4 -94.6 117.3 -94.9 L 117.3 -94.9 L 117.3 -94.9 Q 117.2 -95.1 116.8 -95.5 L 116.8 -95.5 L 116.8 -95.5 Q 116.5 -95.9 115.3 -96.5 L 115.3 -96.5 L 115.3 -96.5 Q 114.1 -97.1 113.2 -97.1 L 113.2 -97.1 L 113.2 -97.1 Q 112.4 -97.1 112.1 -97.1 L 112.1 -97.1 L 112.1 -97.1 Q 111.8 -97.1 111.1 -96.9 L 111.1 -96.9 L 111.1 -96.9 Q 110.4 -96.7 109.8 -96.4 L 109.8 -96.4 L 109.8 -96.4 Q 108.3 -95.6 108.3 -94 L 108.3 -94 L 108.3 -94 Q 108.3 -93 108.8 -92.5 L 108.8 -92.5 L 108.8 -92.5 Q 109.2 -92 109.5 -91.8 L 109.5 -91.8 L 109.5 -91.8 Q 109.7 -91.5 110.4 -91.1 L 110.4 -91.1 L 110.4 -91.1 Q 111 -90.8 111.3 -90.7 L 111.3 -90.7 L 111.3 -90.7 Q 111.5 -90.5 112.4 -90.1 L 112.4 -90.1 L 112.4 -90.1 Q 113.3 -89.7 113.6 -89.6 L 113.6 -89.6 L 113.6 -89.6 Q 120.4 -86.4 120.4 -80.9 Z M 156.8 -84.8 L 156.7 -90.9 L 156.7 -90.9 Q 156.7 -92.4 154.9 -92.5 L 154.9 -92.5 L 150.3 -92.5 L 150.3 -92.5 Q 149.8 -92.5 149.8 -92.8 L 149.8 -92.8 L 149.8 -92.8 Q 150.2 -94.7 151.2 -95.8 L 151.2 -95.8 L 151.2 -95.8 Q 152.1 -96.9 152.8 -97.1 L 152.8 -97.1 L 152.8 -97.1 Q 154.5 -97.3 158.6 -97.3 L 158.6 -97.3 L 158.6 -97.3 Q 162.7 -97.3 163.8 -97.3 L 163.8 -97.3 L 163.8 -97.3 Q 164.8 -97.3 165 -97.1 L 165 -97.1 L 165 -97.1 Q 165.3 -96.7 165.3 -96.3 L 165.3 -96.3 L 165.3 -96.3 Q 165.3 -95.9 165.1 -91 L 165.1 -91 L 165.1 -91 Q 164.8 -86.1 164.8 -82.2 L 164.8 -82.2 L 164.8 -82.2 Q 164.8 -78.4 165.1 -77.4 L 165.1 -77.4 L 165.1 -77.4 Q 165.4 -76.4 165.4 -76.1 L 165.4 -76.1 L 165.4 -76.1 Q 165.4 -75.1 163.6 -73.9 L 163.6 -73.9 L 163.6 -73.9 Q 161.8 -72.7 158.2 -71.8 L 158.2 -71.8 L 158.2 -71.8 Q 154.5 -71 150.2 -71 L 150.2 -71 L 150.2 -71 Q 144.4 -71 140.1 -75 L 140.1 -75 L 140.1 -75 Q 136.8 -78.2 135.5 -82 L 135.5 -82 L 135.5 -82 Q 134.3 -85.7 134.3 -92.6 L 134.3 -92.6 L 134.3 -92.6 Q 134.3 -118 152.9 -118 L 152.9 -118 L 152.9 -118 Q 156 -118 158.5 -117.3 L 158.5 -117.3 L 158.5 -117.3 Q 161 -116.6 162.9 -114.7 L 162.9 -114.7 L 162.9 -114.7 Q 164.8 -112.7 164.8 -109.7 L 164.8 -109.7 L 164.8 -109.7 Q 164.8 -108.1 164.1 -106.4 L 164.1 -106.4 L 164.1 -106.4 Q 163 -103 159 -103 L 159 -103 L 159 -103 Q 156.8 -103 155.7 -104.1 L 155.7 -104.1 L 155.7 -104.1 Q 154.6 -105.3 154.6 -107.2 L 154.6 -107.2 L 154.6 -107.2 Q 154.6 -108 155.4 -108.2 L 155.4 -108.2 L 155.4 -108.2 Q 156.7 -108.9 156.7 -110.6 L 156.7 -110.6 L 156.7 -110.6 Q 156.7 -112.3 155.4 -113.2 L 155.4 -113.2 L 155.4 -113.2 Q 154.1 -114.2 152.7 -114.2 L 152.7 -114.2 L 152.7 -114.2 Q 149.6 -114.2 147.5 -111.9 L 147.5 -111.9 L 147.5 -111.9 Q 145.4 -109.7 144.4 -106.2 L 144.4 -106.2 L 144.4 -106.2 Q 142.8 -99.8 142.8 -93.1 L 142.8 -93.1 L 142.8 -93.1 Q 142.8 -82.2 148.1 -78.6 L 148.1 -78.6 L 148.1 -78.6 Q 150.1 -77.2 152.3 -77.2 L 152.3 -77.2 L 152.3 -77.2 Q 156.3 -77.2 156.6 -78.7 L 156.6 -78.7 L 156.6 -78.7 Q 156.8 -80.7 156.8 -84.8 L 156.8 -84.8 Z M 190.2 -91.3 L 190.2 -91.3 L 190.1 -83.1 L 190.1 -83.1 Q 190.1 -74.6 191.9 -72.9 L 191.9 -72.9 L 191.9 -72.9 Q 192.2 -72.6 192.2 -72.3 L 192.2 -72.3 L 192.2 -72.3 Q 192.2 -71.3 188 -71.3 L 188 -71.3 L 188 -71.3 Q 183.9 -71.3 183.7 -73.8 L 183.7 -73.8 L 183.7 -73.8 Q 183.6 -74.3 183.6 -76.1 L 183.6 -76.1 L 183.9 -86.4 L 183.9 -86.4 Q 183.9 -86.8 183.3 -86.8 L 183.3 -86.8 L 183.3 -86.8 Q 180.3 -86.8 177.6 -85.1 L 177.6 -85.1 L 177.6 -85.1 Q 174.9 -83.4 174.9 -80.7 L 174.9 -80.7 L 174.9 -80.7 Q 174.9 -79.3 175.7 -78.3 L 175.7 -78.3 L 175.7 -78.3 Q 176.4 -77.4 177.6 -77.4 L 177.6 -77.4 L 177.6 -77.4 Q 178.7 -77.4 179.4 -77.8 L 179.4 -77.8 L 179.4 -77.8 Q 180.1 -78.2 180.3 -78.3 L 180.3 -78.3 L 180.3 -78.3 Q 181.4 -78.2 181.4 -76 L 181.4 -76 L 181.4 -76 Q 181.4 -73.9 179.4 -72.6 L 179.4 -72.6 L 179.4 -72.6 Q 177.4 -71.3 175.2 -71.3 L 175.2 -71.3 L 175.2 -71.3 Q 173 -71.3 171.5 -72 L 171.5 -72 L 171.5 -72 Q 169.9 -72.8 169.2 -73.8 L 169.2 -73.8 L 169.2 -73.8 Q 168.5 -74.7 168 -75.9 L 168 -75.9 L 168 -75.9 Q 167.6 -77.4 167.6 -78.5 L 167.6 -78.5 L 167.6 -78.5 Q 167.6 -83 170.4 -85.7 L 170.4 -85.7 L 170.4 -85.7 Q 173.2 -88.4 177.6 -89.5 L 177.6 -89.5 L 177.6 -89.5 Q 183.5 -90.7 183.7 -91.6 L 183.7 -91.6 L 183.7 -91.6 Q 183.9 -92.3 183.9 -94 L 183.9 -94 L 183.9 -94 Q 183.9 -97.4 180.5 -97.4 L 180.5 -97.4 L 180.5 -97.4 Q 179 -97.4 177.8 -96.5 L 177.8 -96.5 L 177.8 -96.5 Q 176.7 -95.5 176.7 -94.1 L 176.7 -94.1 L 177.1 -92.6 L 177.1 -92.6 Q 176.9 -91.5 174.8 -91.3 L 174.8 -91.3 L 174.1 -91.2 L 174.1 -91.2 Q 172.1 -91.2 171 -92.2 L 171 -92.2 L 171 -92.2 Q 169.9 -93.2 169.9 -94.8 L 169.9 -94.8 L 169.9 -94.8 Q 169.9 -95.8 170.6 -97 L 170.6 -97 L 170.6 -97 Q 171.2 -98.3 172.3 -99 L 172.3 -99 L 172.3 -99 Q 173.3 -99.8 175.4 -100.4 L 175.4 -100.4 L 175.4 -100.4 Q 177.6 -101 179.6 -101 L 179.6 -101 L 179.6 -101 Q 181.6 -101 182.6 -100.9 L 182.6 -100.9 L 182.6 -100.9 Q 183.7 -100.8 185.6 -100.3 L 185.6 -100.3 L 185.6 -100.3 Q 187.5 -99.8 188.8 -98.5 L 188.8 -98.5 L 188.8 -98.5 Q 190 -97.1 190.1 -95.6 L 190.1 -95.6 L 190.1 -95.6 Q 190.2 -94.1 190.2 -91.3 Z M 202.1 -108.7 L 202.1 -108.7 L 201.7 -85.2 L 201.7 -85.2 Q 201.7 -74.2 202.4 -72 L 202.4 -72 L 202.4 -72 Q 202.6 -71.7 202.6 -71.3 L 202.6 -71.3 L 202.6 -71.3 Q 202.6 -70.5 200.8 -70.5 L 200.8 -70.5 L 200.8 -70.5 Q 198.9 -70.5 196.6 -71.4 L 196.6 -71.4 L 196.6 -71.4 Q 194.4 -72.4 194.4 -73.8 L 194.4 -73.8 L 194.4 -73.8 Q 195.6 -82.8 195.6 -97.8 L 195.6 -97.8 L 195.4 -107.6 L 195.4 -107.6 Q 195.2 -109.4 194.6 -110.6 L 194.6 -110.6 L 194.6 -110.6 Q 194 -111.9 193.5 -112.3 L 193.5 -112.3 L 192.9 -112.6 L 192.9 -112.6 Q 192.5 -112.9 192.5 -113.2 L 192.5 -113.2 L 192.5 -113.2 Q 192.5 -114.1 195.3 -115.4 L 195.3 -115.4 L 195.3 -115.4 Q 198.1 -116.7 200.7 -116.7 L 200.7 -116.7 L 200.7 -116.7 Q 201.7 -116.7 201.8 -116 L 201.8 -116 L 201.8 -116 Q 202.1 -114.3 202.1 -108.7 Z M 215.1 -108.7 L 215.1 -108.7 L 214.7 -85.2 L 214.7 -85.2 Q 214.7 -74.2 215.4 -72 L 215.4 -72 L 215.4 -72 Q 215.6 -71.7 215.6 -71.3 L 215.6 -71.3 L 215.6 -71.3 Q 215.6 -70.5 213.7 -70.5 L 213.7 -70.5 L 213.7 -70.5 Q 211.9 -70.5 209.6 -71.4 L 209.6 -71.4 L 209.6 -71.4 Q 207.3 -72.4 207.3 -73.8 L 207.3 -73.8 L 207.3 -73.8 Q 208.6 -82.8 208.6 -97.8 L 208.6 -97.8 L 208.4 -107.6 L 208.4 -107.6 Q 208.2 -109.4 207.6 -110.6 L 207.6 -110.6 L 207.6 -110.6 Q 207 -111.9 206.4 -112.3 L 206.4 -112.3 L 205.9 -112.6 L 205.9 -112.6 Q 205.5 -112.9 205.5 -113.2 L 205.5 -113.2 L 205.5 -113.2 Q 205.5 -114.1 208.3 -115.4 L 208.3 -115.4 L 208.3 -115.4 Q 211.1 -116.7 213.7 -116.7 L 213.7 -116.7 L 213.7 -116.7 Q 214.7 -116.7 214.8 -116 L 214.8 -116 L 214.8 -116 Q 215.1 -114.3 215.1 -108.7 Z M 225.5 -88.4 L 225.5 -88.4 L 225.6 -86.8 L 225.6 -86.8 Q 225.6 -86.4 226.1 -86.4 L 226.1 -86.4 L 226.1 -86.4 Q 228.1 -86.6 229.7 -87.4 L 229.7 -87.4 L 229.7 -87.4 Q 231.2 -88.3 232 -89.4 L 232 -89.4 L 232 -89.4 Q 233.5 -91.8 233.6 -93.5 L 233.6 -93.5 L 233.7 -94.2 L 233.7 -94.2 Q 233.7 -97.7 231 -97.7 L 231 -97.7 L 231 -97.7 Q 228.9 -97.7 227.6 -95.9 L 227.6 -95.9 L 227.6 -95.9 Q 225.5 -93.1 225.5 -88.4 Z M 239.5 -79.8 L 239.5 -79.8 L 239.5 -79.8 Q 239.5 -77.4 238.5 -75.6 L 238.5 -75.6 L 238.5 -75.6 Q 237.5 -73.8 236.2 -72.9 L 236.2 -72.9 L 236.2 -72.9 Q 235 -72 233.3 -71.5 L 233.3 -71.5 L 233.3 -71.5 Q 231.2 -70.9 229.3 -70.9 L 229.3 -70.9 L 229.3 -70.9 Q 223.9 -70.9 221.4 -74.9 L 221.4 -74.9 L 221.4 -74.9 Q 218.8 -79 218.8 -85.2 L 218.8 -85.2 L 218.8 -85.2 Q 218.8 -91.4 222 -96.3 L 222 -96.3 L 222 -96.3 Q 225.1 -101.2 231.5 -101.2 L 231.5 -101.2 L 231.5 -101.2 Q 237.2 -101.2 239.3 -97.1 L 239.3 -97.1 L 239.3 -97.1 Q 240.1 -95.6 240.1 -94.2 L 240.1 -94.2 L 240.1 -94.2 Q 240.1 -92.8 240 -92 L 240 -92 L 240 -92 Q 239.9 -91.2 239.1 -89.6 L 239.1 -89.6 L 239.1 -89.6 Q 238.3 -88 237 -86.8 L 237 -86.8 L 237 -86.8 Q 235.8 -85.5 233 -84.3 L 233 -84.3 L 233 -84.3 Q 230.3 -83.2 226.5 -82.8 L 226.5 -82.8 L 226.5 -82.8 Q 226 -82.8 226 -82.3 L 226 -82.3 L 226 -82.3 Q 226 -81.8 226.4 -80.6 L 226.4 -80.6 L 226.4 -80.6 Q 226.9 -79.5 227.4 -78.8 L 227.4 -78.8 L 227.4 -78.8 Q 228.8 -77 231.5 -77 L 231.5 -77 L 231.5 -77 Q 234.3 -77 236.2 -78.8 L 236.2 -78.8 L 236.2 -78.8 Q 237.2 -79.7 237.9 -81.1 L 237.9 -81.1 L 237.9 -81.1 Q 238.1 -81.6 238.5 -81.6 L 238.5 -81.6 L 238.5 -81.6 Q 239 -81.6 239.2 -80.9 L 239.2 -80.9 L 239.2 -80.9 Q 239.5 -80.2 239.5 -79.8 Z M 262.2 -94.1 L 261.9 -89.3 L 262.1 -87 L 262.1 -87 Q 262.1 -85.8 259.8 -85.8 L 259.8 -85.8 L 259.8 -85.8 Q 255.2 -85.8 255.2 -89.3 L 255.2 -89.3 L 255.2 -89.3 Q 255.2 -90.2 255.6 -91.6 L 255.6 -91.6 L 255.6 -91.6 Q 256 -93.1 256 -94.2 L 256 -94.2 L 256 -94.2 Q 256 -95.3 255.4 -96.1 L 255.4 -96.1 L 255.4 -96.1 Q 254.8 -96.9 253.6 -96.9 L 253.6 -96.9 L 253.6 -96.9 Q 252.3 -96.9 251.5 -96 L 251.5 -96 L 251.5 -96 Q 250.6 -95.1 250.4 -94.2 L 250.4 -94.2 L 250.2 -93.4 L 250.2 -93.4 Q 249.8 -91.4 249.8 -86.7 L 249.8 -86.7 L 249.8 -86.7 Q 249.8 -82.1 249.9 -79.4 L 249.9 -79.4 L 249.9 -79.4 Q 250 -76.8 250.2 -75.8 L 250.2 -75.8 L 250.2 -75.8 Q 250.3 -74.8 250.3 -74.6 L 250.3 -74.6 L 250.3 -74.6 Q 250.3 -73 248.3 -72 L 248.3 -72 L 248.3 -72 Q 246.3 -71 244.3 -71 L 244.3 -71 L 244.3 -71 Q 242.4 -71 242.4 -71.8 L 242.4 -71.8 L 242.7 -73.8 L 242.7 -73.8 Q 243.6 -79.4 243.6 -88.4 L 243.6 -88.4 L 243.6 -88.4 Q 243.6 -97.3 242.9 -100.5 L 242.9 -100.5 L 242.9 -100.5 Q 242.9 -101.3 244.3 -101.3 L 244.3 -101.3 L 244.3 -101.3 Q 247.7 -101.3 248.9 -98.9 L 248.9 -98.9 L 248.9 -98.9 Q 248.9 -98.7 249.1 -98.7 L 249.1 -98.7 L 249.1 -98.7 Q 249.3 -98.7 250 -99.2 L 250 -99.2 L 250 -99.2 Q 252.1 -101 255 -101 L 255 -101 L 255 -101 Q 256.8 -101 258.5 -100.3 L 258.5 -100.3 L 258.5 -100.3 Q 262.2 -98.8 262.2 -94.1 L 262.2 -94.1 Z M 276.4 -54.4 L 276.4 -54.4 L 276.4 -54.4 Q 276.4 -53.6 275.6 -53.6 L 275.6 -53.6 L 275.6 -53.6 L 275.6 -53.6 Q 273.5 -53.6 270.8 -55.1 L 270.8 -55.1 L 270.8 -55.1 Q 268.1 -56.6 268.1 -58.5 L 268.1 -58.5 L 268.1 -58.5 Q 268.1 -60.4 270.6 -65.2 L 270.6 -65.2 L 270.6 -65.2 Q 273 -69.9 273 -71.5 L 273 -71.5 L 273 -71.5 Q 273 -73.3 271.3 -77.7 L 271.3 -77.7 L 271.3 -77.7 Q 269.2 -83.6 268 -87.2 L 268 -87.2 L 268 -87.2 Q 266.7 -90.9 265.3 -93.6 L 265.3 -93.6 L 265.3 -93.6 Q 263.9 -96.4 263.2 -96.9 L 263.2 -96.9 L 262.6 -97.4 L 262.6 -97.4 Q 261.9 -97.8 261.9 -98.2 L 261.9 -98.2 L 261.9 -98.2 Q 261.9 -99.1 264.7 -100 L 264.7 -100 L 264.7 -100 Q 267.4 -101 269.6 -101 L 269.6 -101 L 269.6 -101 Q 270.5 -101 271.2 -99.4 L 271.2 -99.4 L 271.2 -99.4 Q 272.3 -96.4 273.6 -91.1 L 273.6 -91.1 L 273.6 -91.1 Q 276.9 -80.2 277.7 -80.2 L 277.7 -80.2 L 277.7 -80.2 Q 278.3 -80.2 280.1 -84.7 L 280.1 -84.7 L 280.1 -84.7 Q 281.8 -89.2 281.8 -91.9 L 281.8 -91.9 L 281.8 -91.9 Q 281.8 -96.7 279 -97.6 L 279 -97.6 L 279 -97.6 Q 278.4 -97.7 278.4 -98.2 L 278.4 -98.2 L 278.4 -98.2 Q 278.4 -99.4 281.4 -100.4 L 281.4 -100.4 L 281.4 -100.4 Q 284.4 -101.5 286.8 -101.5 L 286.8 -101.5 L 286.8 -101.5 Q 288.9 -101.5 288.9 -98.7 L 288.9 -98.7 L 288.9 -98.7 Q 288.9 -96.6 288 -93.8 L 288 -93.8 L 288 -93.8 Q 287.2 -91 286.4 -89.4 L 286.4 -89.4 L 286.4 -89.4 Q 285.6 -87.7 282.6 -81.8 L 282.6 -81.8 L 282.6 -81.8 Q 279.5 -75.9 277.6 -71.4 L 277.6 -71.4 L 277.6 -71.4 Q 275.4 -66 275.4 -60.5 L 275.4 -60.5 L 275.4 -60.5 Q 275.4 -57.5 275.9 -56 L 275.9 -56 L 275.9 -56 Q 276.4 -54.6 276.4 -54.4 Z" fill="#ee5873"></path></g></g><style>text {
  font-size: 64px;
  font-family: Arial Black;
  dominant-baseline: central;
  text-anchor: middle;
}</style></svg>